<?xml version="1.0" standalone="no"?>
<!DOCTYPE svg PUBLIC "-//W3C//DTD SVG 20010904//EN"
 "http://www.w3.org/TR/2001/REC-SVG-20010904/DTD/svg10.dtd">
<svg version="1.0" xmlns="http://www.w3.org/2000/svg"
 width="250.000000pt" height="103.000000pt" viewBox="0 0 250.000000 103.000000"
 preserveAspectRatio="xMidYMid meet">

<g transform="translate(0.000000,103.000000) scale(0.100000,-0.100000)"
fill="#000000" stroke="none">
<path d="M2299 907 c-102 -62 -194 -118 -203 -126 -20 -17 -23 -29 -81 -330
l-48 -244 23 -19 c12 -10 25 -18 29 -18 4 0 30 42 58 93 398 727 415 757 411
756 -2 0 -87 -51 -189 -112z"/>
<path d="M0 475 l0 -195 149 0 c128 0 152 2 171 18 26 21 39 80 29 135 -11 65
-24 71 -162 77 l-122 5 -3 48 -3 47 135 0 136 0 0 30 0 30 -165 0 -165 0 0
-195z m285 -80 l0 -50 -112 -3 -113 -3 0 56 0 56 113 -3 112 -3 0 -50z"/>
<path d="M556 638 c-7 -18 -34 -76 -59 -128 -25 -52 -59 -125 -75 -162 l-31
-68 34 0 c31 0 35 4 56 55 l23 56 105 -3 105 -3 21 -52 c18 -49 22 -53 54 -53
40 0 46 -21 -62 212 l-82 178 -37 0 c-33 0 -40 -4 -52 -32z m89 -109 c19 -39
35 -73 35 -75 0 -2 -32 -4 -71 -4 -53 0 -70 3 -66 13 16 40 61 137 64 137 1 0
19 -32 38 -71z"/>
<path d="M890 475 l0 -195 30 0 30 0 0 80 0 80 116 0 c114 0 116 0 145 29 25
26 29 37 29 86 0 49 -4 60 -29 86 l-29 29 -146 0 -146 0 0 -195z m274 129 c10
-4 16 -18 16 -39 0 -64 -1 -65 -121 -65 l-109 0 0 55 0 55 99 0 c55 0 106 -3
115 -6z"/>
<path d="M1346 644 c-26 -26 -26 -29 -26 -169 0 -140 0 -143 26 -169 26 -26
29 -26 170 -26 l144 0 0 30 0 29 -137 3 -138 3 0 130 0 130 135 5 135 5 3 28
3 27 -144 0 c-143 0 -145 0 -171 -26z"/>
<path d="M1892 158 l3 -43 117 -60 c82 -42 120 -57 127 -49 8 7 -26 38 -113
102 -69 51 -128 92 -131 92 -3 0 -5 -19 -3 -42z"/>
<path d="M890 95 c0 -71 3 -94 13 -93 8 2 14 29 17 78 l5 75 58 3 c42 2 57 7
57 17 0 12 -16 15 -75 15 l-75 0 0 -95z"/>
<path d="M1080 95 c0 -78 3 -95 15 -95 8 0 16 5 16 10 1 6 3 15 4 20 1 6 3 19
4 30 1 16 10 19 59 22 l57 3 3 38 c5 57 -9 67 -89 67 l-69 0 0 -95z m125 40
c0 -16 -8 -21 -42 -23 -40 -3 -43 -2 -43 23 0 25 3 26 43 23 34 -2 42 -7 42
-23z"/>
<path d="M1296 124 c31 -56 35 -69 25 -90 -9 -21 -8 -24 8 -24 18 0 33 23 118
173 2 4 -4 7 -14 7 -11 0 -28 -17 -43 -45 -14 -25 -28 -45 -31 -45 -4 0 -20
20 -36 45 -16 26 -36 45 -46 45 -15 0 -13 -9 19 -66z"/>
<path d="M1470 102 c0 -93 3 -104 26 -95 10 4 14 25 14 80 l0 74 53 -3 52 -3
3 -78 c2 -68 5 -78 20 -75 14 3 17 18 20 96 l3 92 -96 0 -95 0 0 -88z"/>
</g>
</svg>
